<svg width="21" height="24" viewBox="0 0 21 24" fill="none" xmlns="http://www.w3.org/2000/svg">
<g clip-path="url(#clip0)">
<path d="M10.5046 6.60937C7.5234 6.60937 5.11872 9.01406 5.11872 11.9953C5.11872 14.9766 7.5234 17.3812 10.5046 17.3812C13.4859 17.3812 15.8906 14.9766 15.8906 11.9953C15.8906 9.01406 13.4859 6.60937 10.5046 6.60937ZM10.5046 15.4969C8.57809 15.4969 7.00309 13.9266 7.00309 11.9953C7.00309 10.0641 8.5734 8.49374 10.5046 8.49374C12.4359 8.49374 14.0062 10.0641 14.0062 11.9953C14.0062 13.9266 12.4312 15.4969 10.5046 15.4969ZM17.3671 6.38906C17.3671 7.08749 16.8046 7.64531 16.1109 7.64531C15.4125 7.64531 14.8546 7.08281 14.8546 6.38906C14.8546 5.69531 15.4171 5.13281 16.1109 5.13281C16.8046 5.13281 17.3671 5.69531 17.3671 6.38906ZM20.9343 7.66406C20.8546 5.98124 20.4703 4.49062 19.2374 3.26249C18.0093 2.03437 16.5187 1.64999 14.8359 1.56562C13.1015 1.46718 7.90309 1.46718 6.16872 1.56562C4.49059 1.64531 2.99997 2.02968 1.76716 3.25781C0.53435 4.48593 0.154663 5.97656 0.070288 7.65937C-0.0281494 9.39374 -0.0281494 14.5922 0.070288 16.3266C0.149975 18.0094 0.53435 19.5 1.76716 20.7281C2.99997 21.9562 4.48591 22.3406 6.16872 22.425C7.90309 22.5234 13.1015 22.5234 14.8359 22.425C16.5187 22.3453 18.0093 21.9609 19.2374 20.7281C20.4656 19.5 20.8499 18.0094 20.9343 16.3266C21.0328 14.5922 21.0328 9.39843 20.9343 7.66406ZM18.6937 18.1875C18.3281 19.1062 17.6203 19.8141 16.6968 20.1844C15.314 20.7328 12.0328 20.6062 10.5046 20.6062C8.97653 20.6062 5.69059 20.7281 4.31247 20.1844C3.39372 19.8187 2.68591 19.1109 2.3156 18.1875C1.76716 16.8047 1.89372 13.5234 1.89372 11.9953C1.89372 10.4672 1.77185 7.18124 2.3156 5.80312C2.68122 4.88437 3.38903 4.17656 4.31247 3.80624C5.69528 3.25781 8.97653 3.38437 10.5046 3.38437C12.0328 3.38437 15.3187 3.26249 16.6968 3.80624C17.6156 4.17187 18.3234 4.87968 18.6937 5.80312C19.2421 7.18593 19.1156 10.4672 19.1156 11.9953C19.1156 13.5234 19.2421 16.8094 18.6937 18.1875Z" fill="white"/>
</g>
<defs>
<clipPath id="clip0">
<rect width="21" height="24" fill="white"/>
</clipPath>
</defs>
</svg>
