<svg width="21" height="21" viewBox="0 0 21 21" fill="none" xmlns="http://www.w3.org/2000/svg">
<path d="M20.2371 1.00941L15.9716 0.0250524C15.5081 -0.081586 15.0323 0.160401 14.8437 0.595158L12.875 5.18881C12.7027 5.59076 12.8175 6.06243 13.158 6.33722L15.6435 8.37156C14.1669 11.5174 11.5871 14.1341 8.37565 15.6394L6.34131 13.1539C6.06241 12.8135 5.59484 12.6986 5.1929 12.8709L0.599243 14.8396C0.160385 15.0324 -0.0816024 15.5081 0.0250361 15.9716L1.00939 20.2371C1.11193 20.6801 1.50567 21 1.96914 21C12.473 21 21 12.4894 21 1.96915C21 1.50979 20.6842 1.11194 20.2371 1.00941Z" fill="#F64A5F"/>
</svg>
