<svg width="38" height="50" viewBox="0 0 38 50" fill="none" xmlns="http://www.w3.org/2000/svg">
<g clip-path="url(#clip0)">
<path d="M36.3281 15.625H1.17188C0.527344 15.625 0 16.1523 0 16.7969V22.2656C0 22.9102 0.527344 23.4375 1.17188 23.4375H14.8438V45.7031C14.8438 46.3477 15.3711 46.875 16.0156 46.875H21.4844C22.1289 46.875 22.6562 46.3477 22.6562 45.7031V23.4375H36.3281C36.9727 23.4375 37.5 22.9102 37.5 22.2656V16.7969C37.5 16.1523 36.9727 15.625 36.3281 15.625ZM36.3281 3.125H1.17188C0.527344 3.125 0 3.65234 0 4.29688V9.76562C0 10.4102 0.527344 10.9375 1.17188 10.9375H36.3281C36.9727 10.9375 37.5 10.4102 37.5 9.76562V4.29688C37.5 3.65234 36.9727 3.125 36.3281 3.125Z" fill="white"/>
</g>
<defs>
<clipPath id="clip0">
<rect width="37.5" height="50" fill="white"/>
</clipPath>
</defs>
</svg>
